<?xml version="1.0" standalone="no"?>
<!DOCTYPE svg PUBLIC "-//W3C//DTD SVG 1.1//EN" "http://www.w3.org/Graphics/SVG/1.1/DTD/svg11.dtd" >
<svg xmlns="http://www.w3.org/2000/svg">
<metadata>
This is a custom SVG webfont generated by Font Squirrel.
Copyright   : Copyright c 2007 Monotype Imaging Inc Soho is designed by Sebastian Lester All rights reserved
Designer    : Sebastian Lester
Foundry     : Sebastian Lester
Foundry URL : wwwcustomfontscom
</metadata>
<defs>
<font id="webfontUAOpPJFJ" horiz-adv-x="952" >
<font-face units-per-em="2048" ascent="1577" descent="-471" />
<missing-glyph horiz-adv-x="344" />
<glyph unicode=" "  horiz-adv-x="344" />
<glyph unicode="&#x09;" horiz-adv-x="344" />
<glyph unicode="&#xa0;" horiz-adv-x="344" />
<glyph unicode="!" horiz-adv-x="462" d="M354 0h-245v295h245v-295zM365 1577l-23 -1153h-221l-23 1153h267z" />
<glyph unicode="&#x22;" horiz-adv-x="753" d="M692 1565l-82 -492h-176l35 492h223zM319 1565h-225l-33 -492h177z" />
<glyph unicode="#" horiz-adv-x="1159" d="M1063 389h-219l-31 -389h-195l31 389h-217l-31 -389h-196l33 389h-142v174h156l29 373h-185v172h201l33 414h196l-34 -414h217l34 414h195l-33 -414h158v-172h-174l-29 -373h203v-174zM694 936h-217l-31 -373h218z" />
<glyph unicode="$" horiz-adv-x="991" d="M909 395q0 -170 -79.5 -272.5t-231.5 -130.5v-240h-215v228q-170 12 -279 43v290h166l21 -131q12 0 67.5 -1t100.5 -1q201 0 200 211q0 82 -31.5 133t-117.5 111l-180 123q-131 88 -189.5 181t-58.5 232q0 303 301 359v223h215v-211q154 -8 276 -43v-280h-167l-21 118 q-63 6 -164 6q-98 0 -144 -40.5t-46 -133.5q0 -72 31.5 -121t113.5 -106l172 -117q135 -92 197.5 -190.5t62.5 -239.5z" />
<glyph unicode="%" horiz-adv-x="1839" d="M1765 385q0 -403 -313 -403q-315 0 -315 403v143q0 195 73.5 298.5t241.5 103.5q313 0 313 -402v-143zM1575 385v143q0 139 -29.5 191.5t-93.5 52.5q-66 0 -94.5 -52t-28.5 -192v-143q0 -139 28.5 -191.5t94.5 -52.5q63 0 93 52.5t30 191.5zM1393 1524l-744 -1524h-207 l744 1524h207zM702 999q0 -190 -70.5 -296.5t-242.5 -106.5q-174 0 -243.5 106.5t-69.5 296.5v142q0 190 69.5 296.5t243.5 106.5q172 0 242.5 -105.5t70.5 -297.5v-142zM512 999v142q0 141 -26.5 193t-96.5 52q-68 0 -95.5 -53t-27.5 -192v-142q0 -141 26.5 -193t96.5 -52 t96.5 52t26.5 193z" />
<glyph unicode="&#x26;" horiz-adv-x="1214" d="M899 0l-59 76q-135 -98 -336 -99q-428 0 -428 394v12q0 252 209 418q-80 109 -121 197.5t-41 195.5v10q0 340 401 340q180 0 355 -45v-276h-166l-23 123q-53 4 -162 4q-170 0 -170 -154v-10q0 -74 30 -133.5t87 -137.5l379 -497q37 121 37 313l-84 12v148h360v-148 l-84 -12q0 -299 -100 -483l154 -201v-47h-238zM518 158q131 0 211 63l-315 412q-98 -92 -99 -250v-12q0 -106 53.5 -159.5t149.5 -53.5z" />
<glyph unicode="'" horiz-adv-x="380" d="M319 1565l-81 -492h-177l33 492h225z" />
<glyph unicode="(" horiz-adv-x="589" d="M547 -410h-219q-244 422 -244 957v16q0 537 244 959h219q-225 -430 -225 -959v-16q0 -527 225 -957z" />
<glyph unicode=")" horiz-adv-x="589" d="M504 547q0 -530 -242 -957h-219q225 430 225 957v16q0 528 -225 959h219q242 -426 242 -959v-16z" />
<glyph unicode="*" horiz-adv-x="980" d="M905 1208l-114 -37q-86 -27 -166 -38q53 -47 110 -125l72 -97l-160 -114l-72 98q-55 76 -88 143q-31 -66 -86 -143l-69 -96l-162 112l72 99q59 78 112 125q-80 10 -164 39l-114 34l59 185l117 -37q76 -23 154 -66q-14 80 -15 166v121h199v-121q0 -82 -19 -168 q70 37 158 66l115 39z" />
<glyph unicode="+" horiz-adv-x="1048" d="M963 707h-342v-342h-189v342h-346v184h346v342h189v-342h342v-184z" />
<glyph unicode="," horiz-adv-x="477" d="M418 299l-193 -492h-198l135 492h256z" />
<glyph unicode="-" horiz-adv-x="567" d="M496 510h-424v182h424v-182z" />
<glyph unicode="." horiz-adv-x="415" d="M326 0h-236v299h236v-299z" />
<glyph unicode="/" horiz-adv-x="702" d="M698 1522l-458 -1522h-234l457 1522h235z" />
<glyph unicode="0" horiz-adv-x="1052" d="M977 582q0 -295 -102.5 -451t-348 -156t-348 156t-102.5 451v358q0 295 102.5 449.5t348 154.5t348 -154.5t102.5 -449.5v-358zM729 582v358q0 223 -47 313t-155.5 90t-155.5 -90t-47 -313v-358q0 -223 47 -314.5t155.5 -91.5t155.5 91.5t47 314.5z" />
<glyph unicode="1" horiz-adv-x="944" d="M872 0h-800v182l278 15v1093l-278 -92v197l340 131h184v-1329l276 -15v-182z" />
<glyph unicode="2" horiz-adv-x="968" d="M874 0h-792v195q0 242 72.5 367.5t273.5 281.5q141 111 181 171t40 148q0 109 -52 149t-189 40q-16 0 -38 -1t-51.5 -3t-46.5 -2l-18 -127h-164v278q162 47 356 47q231 0 341 -89t110 -284q0 -127 -63.5 -229t-241.5 -244q-174 -137 -223.5 -220t-49.5 -242v-33h373 l19 114h163v-317z" />
<glyph unicode="3" horiz-adv-x="974" d="M899 401q0 -233 -113.5 -329.5t-351.5 -96.5q-180 0 -346 52v284h164l20 -135q45 -4 142 -4q131 0 184 46t53 192v57q0 117 -38 171t-148 54h-315v182h315q111 0 148.5 53.5t37.5 168.5v32q0 135 -50 178.5t-189 43.5q-51 0 -138 -4l-18 -127h-166v278q158 47 344 47 q238 0 351.5 -91t113.5 -316v-31q0 -229 -151 -322q152 -90 151 -323v-60z" />
<glyph unicode="4" horiz-adv-x="1042" d="M987 383h-162v-215l82 -10v-158h-411v158l82 10v215h-529v213l537 926h239v-947h162v-192zM586 575v601l-334 -601h334z" />
<glyph unicode="5" horiz-adv-x="962" d="M887 418q0 -242 -119 -342.5t-352 -100.5q-174 0 -346 50v286h163l21 -135q66 -6 131 -6q143 0 198.5 50t55.5 198v71q0 143 -51 196.5t-211 53.5h-287l51 783h709v-305h-164l-18 104h-320l-24 -393h94q268 0 368.5 -108.5t100.5 -330.5v-71z" />
<glyph unicode="6" horiz-adv-x="1038" d="M963 444q0 -139 -39 -236t-106.5 -145.5t-138.5 -68t-155 -19.5q-102 0 -178 22.5t-140.5 78t-97 164t-32.5 268.5v491q0 279 102.5 412t376.5 133q178 0 352 -45v-280h-164l-20 127q-90 4 -145 4q-88 0 -141.5 -19.5t-78 -69t-30.5 -101.5t-6 -150v-86q115 29 225 28 q201 0 308.5 -88t107.5 -307v-113zM717 444v101q0 137 -42 185t-155 48q-109 0 -198 -24v-262q0 -176 47 -251t155 -75q193 -1 193 278z" />
<glyph unicode="7" horiz-adv-x="948" d="M893 1292l-496 -1292h-260l525 1321h-412l-19 -107h-163v308h825v-230z" />
<glyph unicode="8" horiz-adv-x="1067" d="M989 432q0 -123 -27.5 -210t-67.5 -134t-105.5 -73.5t-120 -33t-131.5 -6.5h-7q-78 0 -133 6.5t-120.5 33t-104.5 73.5t-66.5 134t-27.5 210v19q0 131 34.5 208.5t110.5 133.5q-141 100 -141 315v25q0 227 118.5 319t329.5 92h7q211 0 329.5 -92t118.5 -319v-25 q0 -215 -141 -315q76 -55 110.5 -133t34.5 -209v-19zM743 434v19q0 135 -32.5 191t-116.5 56h-121q-84 0 -117.5 -56t-33.5 -191v-19q0 -162 49 -215t159 -53h7q109 0 157.5 53t48.5 215zM741 1106v24q0 129 -49 178.5t-155 49.5h-7q-106 0 -156 -49t-50 -179v-24 q0 -113 33.5 -169t115.5 -56h121q80 0 113.5 56t33.5 169z" />
<glyph unicode="9" horiz-adv-x="1038" d="M963 524q0 -279 -102.5 -413t-377.5 -134q-193 0 -352 48v282h164l20 -129q68 -6 148 -6q88 0 140 19.5t77 69.5t31 101.5t6 149.5v88q-106 -31 -225 -31q-201 0 -308.5 88t-107.5 308v112q0 139 39 236.5t106.5 145.5t138 67.5t154.5 19.5q102 0 178 -21.5t140.5 -76.5 t97.5 -162.5t33 -267.5v-494zM717 770v262q0 174 -47 249t-156 75q-193 0 -192 -279v-100q0 -135 42 -184.5t154 -49.5q101 0 199 27z" />
<glyph unicode=":" horiz-adv-x="438" d="M336 0h-236v299h236v-299zM336 1135v-299h-236v299h236z" />
<glyph unicode=";" horiz-adv-x="481" d="M397 299l-198 -489h-197l133 489h262zM377 836h-236v299h236v-299z" />
<glyph unicode="&#x3c;" horiz-adv-x="1048" d="M881 276h-265l-448 523l448 520h265l-447 -520z" />
<glyph unicode="=" horiz-adv-x="1048" d="M901 457h-754v188h754v-188zM901 948h-754v189h754v-189z" />
<glyph unicode="&#x3e;" horiz-adv-x="1048" d="M881 799l-449 -523h-264l446 523l-446 520h264z" />
<glyph unicode="?" horiz-adv-x="817" d="M53 1559q145 39 299 38q205 0 296 -72.5t91 -258.5v-13q0 -182 -139 -368q-113 -150 -144.5 -216.5t-31.5 -158.5v-86h-211v86q0 127 25.5 213t113.5 209q70 96 96.5 161.5t26.5 137.5v10q0 90 -34.5 122t-121.5 32q-63 0 -88 -2l-20 -111h-158v277zM203 299v-299h233 v299h-233z" />
<glyph unicode="@" horiz-adv-x="1349" d="M1282 758q0 -305 -141.5 -480.5t-448.5 -175.5q-184 0 -263 76t-81 223q0 59 8 166q14 246 96.5 340t241.5 94q129 0 279 -47l-51 -661q215 96 215 465q0 236 -98.5 353.5t-305.5 117.5q-223 0 -346 -147.5t-160 -489.5q-16 -164 -16 -273q0 -430 416 -430q68 0 288 19 v-105q-137 -31 -288 -30q-295 0 -427 149.5t-132 399.5q0 141 18 284q43 389 200.5 567.5t446.5 178.5q270 0 409.5 -152.5t139.5 -441.5zM766 838q-33 6 -76 6q-66 0 -98.5 -54.5t-44.5 -228.5q-6 -88 -6 -160q0 -84 30.5 -116.5t106.5 -32.5h47z" />
<glyph unicode="A" horiz-adv-x="1208" d="M449 0h-408v184l82 9l252 1134l-84 12v183h495l297 -1329l84 -9v-184h-409v182l69 8l-55 265h-338l-57 -265l72 -8v-182zM735 662l-86 407q-12 53 -39 266h-12q-27 -207 -39 -266l-88 -407h264z" />
<glyph unicode="B" horiz-adv-x="1085" d="M1018 432q0 -131 -37 -220t-110.5 -135t-163 -64.5t-211.5 -18.5q-197 0 -437 6v184l84 11v1130l-84 12v185q207 8 439 8q256 0 385 -85t129 -317v-24q0 -236 -158 -320q164 -84 164 -325v-27zM776 432v29q0 119 -47 177t-168 58h-176v-501h123q141 0 204.5 48t63.5 189z M770 1100v24q0 127 -60.5 166t-199.5 39h-125v-452h176q121 0 165 55t44 168z" />
<glyph unicode="C" horiz-adv-x="944" d="M879 16q-152 -41 -304 -41q-94 0 -164.5 14.5t-138 54.5t-109.5 107.5t-67.5 181t-25.5 267.5v322q0 193 36.5 319.5t109.5 191t157 88t202 23.5q158 0 304 -39v-293h-168l-21 117q-16 0 -49 1t-49 1q-98 0 -152.5 -28.5t-88.5 -119.5t-34 -261v-322q0 -248 64.5 -330 t212.5 -82q35 0 96 5l21 120h168v-297z" />
<glyph unicode="D" horiz-adv-x="1136" d="M1061 610q0 -303 -122 -459.5t-433 -156.5q-227 0 -447 6v182l84 15v1130l-84 12v183q195 8 447 8q307 0 431 -155.5t124 -456.5v-308zM815 610v308q0 229 -65.5 316t-241.5 87h-121v-1120h121q174 0 240.5 90t66.5 319z" />
<glyph unicode="E" horiz-adv-x="962" d="M897 0h-838v182l80 11v1136l-80 10v183h838v-308h-168l-18 103h-324v-430h477v-201h-477v-481h324l18 106h168v-311z" />
<glyph unicode="F" d="M866 684h-477v-491l82 -11v-182h-412v182l84 13v1134l-84 10v183h840v-308h-168l-18 103h-324v-430h477v-203z" />
<glyph unicode="G" horiz-adv-x="1028" d="M954 18q-184 -43 -383 -43q-111 0 -193.5 25t-156.5 88.5t-112.5 190.5t-38.5 313v338q0 158 30.5 272.5t76.5 179t117 102.5t135.5 49t148.5 11q211 0 372 -45v-287h-168l-20 113q-123 6 -139 6q-82 0 -130.5 -11t-93.5 -50t-63.5 -122t-18.5 -218v-338q0 -170 33 -259 t87.5 -117t154.5 -28q45 0 123 5v419l-144 15v170h383v-779z" />
<glyph unicode="H" horiz-adv-x="1249" d="M776 1522h414v-183l-84 -10v-1136l84 -9v-184h-414v182l84 11v499h-471v-499l84 -11v-182h-414v184l84 9v1136l-84 10v183h414v-183l-84 -10v-426h471v426l-84 10v183z" />
<glyph unicode="I" horiz-adv-x="536" d="M473 0h-412v184l84 9v1136l-84 10v183h412v-183l-82 -10v-1136l82 -9v-184z" />
<glyph unicode="J" horiz-adv-x="524" d="M463 1339l-84 -10v-1462q0 -160 -66.5 -229.5t-214.5 -69.5q-88 0 -159 22v166h110q53 0 68.5 21.5t15.5 85.5v1466l-82 10v183h412v-183z" />
<glyph unicode="K" horiz-adv-x="1116" d="M471 0h-412v184l80 9v1136l-80 10v183h412v-183l-84 -10v-512l406 705h274v-183l-96 -10l-334 -557l336 -579l94 -9v-184h-291l-389 715v-522l84 -11v-182z" />
<glyph unicode="L" horiz-adv-x="911" d="M860 0h-801v184l80 9v1136l-80 10v183h410v-183l-82 -10v-1122h287l18 112h168v-319z" />
<glyph unicode="M" horiz-adv-x="1392" d="M463 0h-404v184l80 9v1136l-80 10v183h363l203 -535q29 -74 67 -199h4q39 125 68 199l205 535h364v-183l-82 -10v-1136l82 -9v-184h-405v182l84 11v698q0 113 12 313h-4q-68 -215 -82 -250l-141 -362h-205l-139 364q-45 125 -82 248h-4q12 -152 12 -313v-698l84 -11v-182 z" />
<glyph unicode="N" horiz-adv-x="1228" d="M772 1522h395v-183l-82 -10v-1329h-288l-359 971q-43 113 -80 231h-4q14 -162 15 -293v-716l84 -11v-182h-394v184l82 9v1136l-82 10v183h373l352 -932q55 -145 82 -238h4q-14 186 -14 307v670l-84 10v183z" />
<glyph unicode="O" horiz-adv-x="1110" d="M1040 621q0 -645 -485 -645.5t-485 645.5v280q0 643 485 643t485 -643v-280zM795 621v280q0 229 -56.5 330.5t-183.5 101.5q-125 0 -181.5 -101.5t-56.5 -330.5v-280q0 -229 55.5 -332t182.5 -103t183.5 103t56.5 332z" />
<glyph unicode="P" horiz-adv-x="1069" d="M479 0h-420v182l84 11v1136l-84 10v185q211 6 426 6q123 0 210 -18.5t163 -66.5t114 -141.5t38 -232.5v-31q0 -137 -38 -232t-112 -144.5t-160 -70t-200 -20.5h-115v-380l94 -11v-182zM766 1040v31q0 150 -60.5 201t-209.5 51h-111v-543h111q147 0 208.5 55t61.5 205z " />
<glyph unicode="Q" horiz-adv-x="1110" d="M1040 618q0 -565 -368 -630v-133q0 -51 16.5 -63.5t81.5 -12.5h125v-156q-80 -29 -213 -29q-125 0 -185.5 55.5t-60.5 198.5v140q-367 68 -366 630v283q0 643 485 643t485 -643v-283zM795 621v280q0 229 -56.5 330.5t-183.5 101.5t-182.5 -101.5t-55.5 -330.5v-280 q0 -229 55.5 -332t182.5 -103t183.5 103t56.5 332z" />
<glyph unicode="R" horiz-adv-x="1132" d="M469 0h-410v184l84 9v1136l-84 10v183q203 6 416 6q121 0 211 -19.5t166 -67.5t116 -140.5t40 -229.5v-18q0 -164 -51.5 -263.5t-153.5 -154.5l190 -442l99 -9v-184h-279l-246 582q-25 -2 -78 -2h-104v-387l84 -11v-182zM764 1051v18q0 152 -61.5 203t-219.5 51h-98v-545 h107q154 0 213 60.5t59 212.5z" />
<glyph unicode="S" d="M889 395q0 -205 -111.5 -312.5t-324.5 -107.5q-207 0 -367 48v288h166l18 -125q88 -8 156 -8q113 0 163 49t50 164q0 82 -32 133t-118 111l-178 123q-129 90 -188.5 182t-59.5 231q0 373 437 373q186 0 354 -45v-278h-166l-20 116q-82 6 -146 6q-111 0 -160 -39.5 t-49 -134.5q0 -76 31 -125t115 -106l172 -117q137 -92 197.5 -188.5t60.5 -237.5z" />
<glyph unicode="T" horiz-adv-x="1036" d="M987 1214h-166l-18 105h-162v-1129l84 -8v-182h-414v182l84 8v1129h-162l-18 -105h-166v308h938v-308z" />
<glyph unicode="U" horiz-adv-x="1212" d="M741 1522h412v-183l-82 -10v-766q0 -588 -465 -588q-463 0 -463 588v766l-84 10v183h414v-183l-84 -10v-737q0 -229 43 -318.5t174 -89.5t175 89t44 319v737l-84 10v183z" />
<glyph unicode="V" horiz-adv-x="1206" d="M754 1522h409v-183l-84 -10l-295 -1329h-364l-297 1329l-82 10v183h410v-183l-74 -10l178 -858q27 -129 45 -287h4q18 158 45 287l176 858l-71 10v183z" />
<glyph unicode="W" horiz-adv-x="1562" d="M1118 1522h404v-183l-84 -10l-168 -1329h-324l-129 686q-10 51 -33 219h-6q-23 -168 -33 -219l-127 -686h-327l-168 1329l-82 10v183h405v-183l-77 -10l84 -772q4 -31 26 -297h6q37 256 43 289l109 551h289l110 -557q10 -55 41 -283h8q4 104 27 297l84 772l-78 10v183z " />
<glyph unicode="X" horiz-adv-x="1124" d="M715 190l-174 345l-158 -345l78 -8v-182h-420v182l92 13l285 583l-277 549l-92 12v183h436v-183l-73 -8l166 -332l151 332l-76 8v183h420v-183l-92 -12l-281 -567l285 -565l96 -13v-182h-434v182z" />
<glyph unicode="Y" horiz-adv-x="1054" d="M621 1522h393v-183l-84 -12l-281 -733v-401l82 -11v-182h-409v182l84 11v399l-283 735l-82 12v183h397v-183l-69 -8l90 -258q35 -96 67 -229h4q23 104 68 229l90 258l-67 8v183z" />
<glyph unicode="Z" horiz-adv-x="974" d="M915 0h-856v233l568 1086h-365l-20 -107h-164v310h819v-234l-567 -1083h401l21 112h163v-317z" />
<glyph unicode="[" horiz-adv-x="626" d="M569 -412h-448v1934h448v-191h-213v-1554h213v-189z" />
<glyph unicode="\" horiz-adv-x="722" d="M707 0h-234l-455 1522h232z" />
<glyph unicode="]" horiz-adv-x="626" d="M506 -412h-449v189h213v1556h-213v189h449v-1934z" />
<glyph unicode="^" horiz-adv-x="1099" d="M979 836h-234l-196 579l-197 -579h-233l243 688h373z" />
<glyph unicode="_" horiz-adv-x="897" d="M926 -246h-955v144h955v-144z" />
<glyph unicode="`" horiz-adv-x="706" d="M508 1262h-215l-242 303h260z" />
<glyph unicode="a" d="M899 0h-297v63q-113 -86 -266 -86q-270 0 -270 312v57q0 193 105 264.5t321 71.5h88v96q0 123 -32 159t-147 36q-63 0 -96 -2l-20 -99h-162v240q145 53 323 53q211 0 291 -87t80 -300v-585l82 -11v-182zM586 203v332h-92q-115 0 -157 -37t-42 -148v-74q0 -74 26.5 -100 t86.5 -26q96 0 178 53z" />
<glyph unicode="b" horiz-adv-x="944" d="M879 469q0 -262 -101.5 -377t-343.5 -115q-127 0 -346 25v1382l-82 11v182h316v-467q84 57 204 57q190 0 271.5 -110.5t81.5 -339.5v-248zM643 469v248q0 145 -32.5 198.5t-125.5 53.5q-100 0 -166 -41v-748q70 -4 125 -4q113 0 156 58.5t43 234.5z" />
<glyph unicode="c" horiz-adv-x="800" d="M741 20q-117 -43 -280 -43q-209 0 -299 121t-90 363v223q0 242 90 361.5t299 119.5q178 0 280 -43v-252h-161l-19 97q-20 2 -63 2q-104 0 -147.5 -56.5t-43.5 -228.5v-223q0 -172 43 -229.5t148 -57.5q74 0 243 16v-170z" />
<glyph unicode="d" horiz-adv-x="999" d="M946 0h-303v53q-106 -76 -248 -76q-168 0 -245.5 114t-77.5 341v250q0 264 98 373.5t299 109.5q74 0 160 -16v246l-105 8v174h340v-1384l82 -11v-182zM631 219v737q-94 14 -144 15q-100 0 -140 -55.5t-40 -233.5v-250q0 -143 34 -200.5t124 -57.5q82 0 166 45z" />
<glyph unicode="e" horiz-adv-x="944" d="M883 496h-580v-27q0 -180 41 -239.5t186 -59.5q160 0 316 27v-174q-135 -45 -332 -46q-242 0 -344 113t-102 404v137q0 270 99 402t308 132q221 0 314.5 -137t93.5 -410v-122zM649 657v25q0 152 -33.5 222.5t-138 70.5t-139.5 -70.5t-35 -222.5v-25h346z" />
<glyph unicode="f" horiz-adv-x="688" d="M641 958h-213v-765l82 -11v-182h-399v182l82 11v765l-154 19v166h154v137q0 164 57 243t203 79q96 0 196 -31v-150q-117 6 -127 6q-61 0 -77.5 -28.5t-16.5 -118.5v-137h213v-185z" />
<glyph unicode="g" horiz-adv-x="968" d="M901 -76q0 -365 -424 -364q-414 0 -414 356q0 145 89 246q-82 61 -82 164q0 115 90 176q-80 92 -80 276q0 186 86 286.5t319 100.5h426v-149l-90 -17q55 -90 56 -221q0 -387 -400 -387q-98 0 -178 27q-37 -31 -37 -74q0 -37 19.5 -50t72.5 -13h121q223 0 324.5 -73 t101.5 -284zM670 -80q0 115 -37 150.5t-158 35.5h-141q-45 -59 -45 -186q0 -102 40 -147t150 -45q109 0 150 46t41 146zM647 778.5q0 108.5 -34.5 159.5t-135 51t-134.5 -51t-34 -159.5t35 -160t133 -51.5q100 0 135 51.5t35 160z" />
<glyph unicode="h" horiz-adv-x="1060" d="M1008 0h-318v766q0 119 -25.5 161t-97.5 42q-102 0 -196 -62v-714l82 -11v-182h-400v182l82 11v1191l-82 11v182h318v-487q119 76 266 75q166 0 227.5 -101t61.5 -290v-581l82 -11v-182z" />
<glyph unicode="i" horiz-adv-x="507" d="M453 0h-400v184l82 9v755l-82 13v182h320v-950l80 -9v-184zM377 1335h-246v242h246v-242z" />
<glyph unicode="j" horiz-adv-x="485" d="M371 -141q0 -164 -59.5 -231.5t-209.5 -67.5q-98 0 -145 14v166h92q53 0 69.5 22.5t16.5 96.5v1091l-84 11v182h320v-1284zM373 1335h-244v242h244v-242z" />
<glyph unicode="k" horiz-adv-x="976" d="M924 0h-279l-274 539v-539h-318v182l82 11v1191l-82 11v182h318v-942l274 508h277v-182l-117 -11l-207 -356l219 -399l107 -13v-182z" />
<glyph unicode="l" horiz-adv-x="505" d="M453 0h-400v182l82 11v1191l-82 11v182h318v-1384l82 -11v-182z" />
<glyph unicode="m" horiz-adv-x="1505" d="M1452 0h-319v801q0 70 -3.5 98.5t-25 51t-68.5 22.5q-74 0 -170 -64q6 -39 6 -108v-801h-239v801q0 70 -3 98.5t-23.5 51t-63.5 22.5q-76 0 -172 -66v-714l82 -11v-182h-400v182l82 11v757l-82 11v182h307v-78q117 100 260.5 100t204.5 -102q135 102 271 102 q74 0 126 -22.5t80.5 -54t44 -85t18.5 -96.5t3 -104v-610l84 -11v-182z" />
<glyph unicode="n" horiz-adv-x="1060" d="M1008 0h-318v774q0 117 -21.5 158t-88.5 41q-82 0 -209 -70v-710l82 -11v-182h-400v182l82 11v757l-82 11v182h307v-78q152 100 285 100q172 0 226.5 -94t54.5 -297v-581l82 -11v-182z" />
<glyph unicode="o" horiz-adv-x="956" d="M887 463q0 -252 -103.5 -369t-306.5 -117q-408 0 -407 486v217q0 485 407 485q203 0 306.5 -116.5t103.5 -368.5v-217zM651 463v217q0 160 -40 224.5t-134 64.5q-92 0 -133 -63.5t-41 -225.5v-217q0 -160 41 -224.5t133 -64.5q94 0 134 63.5t40 225.5z" />
<glyph unicode="p" horiz-adv-x="995" d="M453 -418h-400v185l82 8v1175l-82 11v182h303v-64q115 86 258 86q162 0 238 -108.5t76 -341.5v-254q0 -258 -102.5 -371t-303.5 -113q-74 0 -151 19v-221l82 -8v-185zM690 461v254q0 143 -31.5 197.5t-115.5 54.5q-82 0 -174 -52v-727q72 -14 141 -14q96 0 138 57.5 t42 229.5z" />
<glyph unicode="q" horiz-adv-x="950" d="M936 -418h-397v185l82 8v260q-102 -57 -220 -58q-182 0 -260 109t-78 344v248q0 270 97.5 378.5t345.5 108.5q160 0 348 -24v-1366l82 -11v-182zM621 219v746q-70 4 -121 4q-119 0 -160 -53.5t-41 -237.5v-248q0 -147 28.5 -200.5t116.5 -53.5q83 0 177 43z" />
<glyph unicode="r" horiz-adv-x="710" d="M670 958q-180 0 -299 -57v-708l82 -11v-182h-400v182l82 11v757l-82 11v182h303v-82q115 104 314 104v-207z" />
<glyph unicode="s" horiz-adv-x="815" d="M754 301q0 -150 -92.5 -237t-286.5 -87q-164 0 -305 39v265h163l19 -111q66 -4 123 -4q80 0 111.5 31.5t31.5 103.5q0 55 -30.5 91t-129.5 100l-61 38q-131 84 -184.5 162t-53.5 191q0 283 367 282q190 0 303 -39v-243h-164l-20 92q-66 4 -111 4q-74 0 -106.5 -21.5 t-32.5 -75t27.5 -88t111.5 -87.5l70 -45q147 -96 198.5 -169t51.5 -192z" />
<glyph unicode="t" horiz-adv-x="708" d="M653 6q-80 -29 -194 -29q-135 0 -191.5 64.5t-56.5 212.5v704l-160 19v166h160v270h235v-270h205v-185h-205v-694q0 -70 12.5 -88t67.5 -18q23 0 72 3t55 3v-158z" />
<glyph unicode="u" horiz-adv-x="1060" d="M1008 0h-312v78q-156 -100 -293 -101q-70 0 -120 21.5t-78.5 55.5t-44 88.5t-20.5 105.5t-5 121v581l-82 11v182h318v-774q0 -119 21.5 -159t92.5 -40q78 0 205 70v710l-82 11v182h318v-950l82 -11v-182z" />
<glyph unicode="v" horiz-adv-x="1024" d="M586 1143h391v-182l-82 -13l-219 -948h-332l-219 948l-82 13v182h395v-185l-73 -8l92 -479l30 -179q18 -110 23 -136h4q25 162 53 315l92 479l-73 8v185z" />
<glyph unicode="w" horiz-adv-x="1505" d="M1073 1143h387v-182l-88 -11l-145 -950h-299l-135 561q-25 109 -37 215h-6q-18 -139 -37 -215l-138 -561h-294l-148 950l-86 11v182h389v-185l-71 -8l57 -452l29 -273h8q51 266 51 269l115 481h260l114 -479q8 -29 54 -271h6q18 188 28 273l56 452l-70 8v185z" />
<glyph unicode="x" horiz-adv-x="978" d="M674 0l-205 371l-180 -371h-242v182l94 13l209 395l-196 358l-99 13v182h264l187 -346l168 346h246v-182l-101 -11l-198 -366l213 -391l96 -11v-182h-256z" />
<glyph unicode="y" horiz-adv-x="1050" d="M600 1143h406v-182l-93 -11l-245 -983q-27 -113 -52.5 -179.5t-66.5 -123.5t-104.5 -80.5t-155.5 -23.5q-117 0 -211 26v168q102 -6 162 -6q80 0 107.5 40t58.5 179l8 37l-275 946l-96 11v182h408v-185l-72 -8l94 -401q35 -152 59 -316h5q23 174 51 312l86 405l-74 8v185 z" />
<glyph unicode="z" horiz-adv-x="819" d="M760 0h-701v231l453 725h-262l-21 -86h-153v273h682v-221l-455 -736h283l20 105h154v-291z" />
<glyph unicode="{" horiz-adv-x="663" d="M604 -418h-100q-207 0 -278.5 77t-71.5 239v340q0 106 -19.5 150t-79.5 95v140q59 51 79 95t20 150v336q0 168 70.5 243t279.5 75h98v-189h-92q-80 0 -100.5 -22.5t-20.5 -106.5v-336q0 -121 -30.5 -190.5t-102.5 -124.5q70 -57 102.5 -127t32.5 -188v-340 q0 -82 19.5 -103.5t99.5 -21.5h94v-191z" />
<glyph unicode="|" horiz-adv-x="475" d="M354 -418h-233v1940h233v-1940z" />
<glyph unicode="}" horiz-adv-x="663" d="M608 483q-59 -51 -78.5 -95t-19.5 -150v-340q0 -162 -71.5 -239t-280.5 -77h-99v191h95q80 0 99 21.5t19 103.5v340q0 119 33 188.5t103 126.5q-72 55 -103 125t-31 190v336q0 84 -20.5 106.5t-99.5 22.5h-93v189h97q209 0 280.5 -75t71.5 -243v-336q0 -106 19.5 -150 t78.5 -95v-140z" />
<glyph unicode="~" horiz-adv-x="1097" d="M977 948q0 -135 -51.5 -205.5t-169.5 -70.5q-127 0 -211 84l-82 82q-57 57 -94 57t-49.5 -23.5t-12.5 -76.5v-117h-188v117q0 279 235 278q106 0 199 -92l80 -80q53 -53 98 -53q37 0 48.5 23.5t11.5 76.5v117h186v-117z" />
<glyph unicode="&#xa1;" horiz-adv-x="462" d="M362 -434h-264l23 1155h221zM354 1145v-295h-245v295h245z" />
<glyph unicode="&#xa2;" horiz-adv-x="819" d="M741 20q-72 -29 -190 -36v-222h-207v230q-145 31 -208.5 149.5t-63.5 323.5v215q0 205 64.5 322.5t207.5 148.5v225h209v-215q115 -10 188 -39v-250h-161l-19 97h-61q-106 0 -149.5 -57.5t-43.5 -231.5v-215q0 -176 43 -233.5t150 -57.5q82 0 241 16v-170z" />
<glyph unicode="&#xa3;" horiz-adv-x="995" d="M922 0h-801v170q78 86 78 248v278h-127v185h127v159q0 272 86 389t313 117q164 0 324 -45v-287h-166l-23 119q-29 4 -100 4q-125 0 -159 -56t-34 -239v-161h353v-185h-353v-278q0 -127 -57 -221h539v-197z" />
<glyph unicode="&#xa4;" horiz-adv-x="1107" d="M1018 444l-131 -129l-137 134q-90 -53 -195 -54q-113 0 -197 54l-139 -134l-131 127l139 136q-53 88 -53 194q0 111 53 193l-139 135l131 125l139 -133q88 55 197 55q111 0 199 -53l135 129l129 -125l-135 -133q57 -100 57 -193q0 -109 -55 -197zM770 772 q0 98 -62.5 156.5t-152.5 58.5t-151.5 -58.5t-61.5 -156.5q0 -104 61.5 -160.5t151.5 -56.5t152.5 56.5t62.5 160.5z" />
<glyph unicode="&#xa5;" horiz-adv-x="1085" d="M1028 492h-364v-308l81 -10v-174h-409v174l84 10v308h-367v159h346l-73 183h-269v161h203l-127 336l-88 12v179h272l156 -449q20 -55 68 -229h4q47 174 67 229l156 449h272v-179l-90 -12l-127 -336h205v-161h-270l-76 -183h346v-159z" />
<glyph unicode="&#xa6;" horiz-adv-x="475" d="M354 721h-233v801h233v-801zM354 -416h-233v801h233v-801z" />
<glyph unicode="&#xa7;" horiz-adv-x="1003" d="M913 -29q0 -193 -108.5 -305t-329.5 -112q-178 0 -358 45v288h168l16 -123q82 -4 174 -4q100 0 143.5 47.5t43.5 159.5q0 96 -35 156.5t-166 140.5l-162 98q-209 127 -209 375q0 129 53 217q-53 86 -53 222q0 182 102.5 275t327.5 93q180 0 354 -45v-278h-167l-21 116 q-86 4 -166 4q-104 0 -146 -38.5t-42 -126.5q0 -45 4 -73t22.5 -67t63.5 -75.5t119 -75.5l100 -54q160 -84 217 -181t57 -230t-59 -223q57 -101 57 -226zM692 354v39q0 59 -2 85t-15 59.5t-43 57t-83 52.5l-107 60q-109 59 -145 108v-57q0 -106 20.5 -146.5t106.5 -89.5 l158 -90q77 -45 110 -78z" />
<glyph unicode="&#xa8;" horiz-adv-x="735" d="M668 1305h-205v239h205v-239zM274 1305v239h-206v-239h206z" />
<glyph unicode="&#xa9;" horiz-adv-x="1368" d="M1282 776q0 -344 -160.5 -538.5t-439.5 -194.5q-276 0 -438 194.5t-162 538.5q0 342 162 536.5t438 194.5q279 0 439.5 -194.5t160.5 -536.5zM1137 776q0 281 -121 437.5t-334 156.5t-334 -156.5t-121 -437.5q0 -283 121 -440.5t334 -157.5t334 157.5t121 440.5zM891 358 q-74 -25 -205 -24q-305 0 -305 356v170q0 354 305 354q145 0 205 -24v-193h-119l-16 66q-14 2 -51 2q-82 0 -112 -45t-30 -160v-170q0 -113 30 -158t112 -45q33 0 51 2l16 66h119v-197z" />
<glyph unicode="&#xaa;" horiz-adv-x="698" d="M643 887h-207v41q-80 -55 -182 -56q-88 0 -134 50.5t-46 140.5v33q0 121 73.5 159.5t217.5 38.5h55v47q0 68 -20.5 88.5t-92.5 20.5q-43 0 -65 -2l-11 -51h-116v153q98 35 229 35q141 0 196.5 -54t55.5 -190v-315l47 -4v-135zM426 1028v168h-59q-72 0 -97.5 -18.5 t-25.5 -79.5v-35q0 -41 16 -53.5t53 -12.5q64 0 113 31z" />
<glyph unicode="&#xab;" horiz-adv-x="909" d="M860 139h-219l-219 434l219 435h219l-213 -435zM492 139l-213 434l213 435h-220l-219 -435l219 -434h220z" />
<glyph unicode="&#xac;" horiz-adv-x="1048" d="M901 457h-196v491h-558v189h754v-680z" />
<glyph unicode="&#xad;" horiz-adv-x="567" d="M496 510h-424v182h424v-182z" />
<glyph unicode="&#xae;" horiz-adv-x="1107" d="M1024 979q0 -268 -126 -426t-345 -158q-221 0 -346 157t-125 427q0 272 125 428t346 156t346 -157t125 -427zM901 979q0 223 -91 347t-257 124q-168 0 -259 -124t-91 -347q0 -225 91 -348t259 -123q166 0 257 123t91 348zM795 668h-146l-112 241h-23h-29v-241h-161v86 l36 6v465l-36 4v94q61 2 194 2q119 0 181.5 -41t62.5 -156v-8q0 -137 -100 -182l86 -176l47 -6v-88zM633 1120v8q0 57 -24.5 75t-88.5 18h-35v-209h37q63 0 87 22.5t24 85.5z" />
<glyph unicode="&#xaf;" horiz-adv-x="724" d="M666 1335h-609v164h609v-164z" />
<glyph unicode="&#xb0;" horiz-adv-x="772" d="M711 1225q0 -131 -95.5 -224.5t-228.5 -93.5q-135 0 -229.5 92.5t-94.5 225.5t94.5 226t229.5 93q133 0 228.5 -93t95.5 -226zM555 1224.5q0 73.5 -49 123t-121 49.5q-70 0 -119 -49.5t-49 -123t49 -122.5t119 -49q72 0 121 49t49 122.5z" />
<glyph unicode="&#xb1;" horiz-adv-x="1048" d="M946 0h-844v174h844v-174zM956 754h-335v-342h-189v342h-340v182h340v342h189v-342h335v-182z" />
<glyph unicode="&#xb2;" horiz-adv-x="729" d="M635 616h-559v117q0 154 49 232.5t186 169.5q94 61 120 93t26 81q0 53 -33 74.5t-117 21.5q-41 0 -90 -6l-12 -76h-119v193q113 31 254 30q160 0 234.5 -55t74.5 -174q0 -84 -45 -146.5t-166 -142.5q-113 -74 -143.5 -117t-30.5 -133v-14h240l10 70h121v-218z" />
<glyph unicode="&#xb3;" horiz-adv-x="727" d="M643 864q0 -143 -77 -204.5t-240 -61.5q-125 0 -248 35v192h121l10 -80q61 -4 98 -4q80 0 113 26t33 105v25q0 63 -25 92t-96 29h-213v133h215q70 0 94.5 28.5t24.5 90.5v16q0 70 -31 93.5t-117 23.5q-66 0 -94 -4l-12 -76h-119v193q104 31 246 30q162 0 239.5 -57 t77.5 -193v-16q0 -137 -98 -197q98 -51 98 -192v-27z" />
<glyph unicode="&#xb4;" horiz-adv-x="706" d="M645 1565l-239 -303h-218l199 303h258z" />
<glyph unicode="&#xb5;" horiz-adv-x="1073" d="M459 -418h-400v185l82 8v1175l-82 11v182h318v-774q0 -119 21.5 -159t93.5 -40q78 0 204 70v710l-82 11v182h318v-950l82 -11v-182h-312v78q-141 -88 -249 -92q-51 0 -76 10v-221l82 -8v-185z" />
<glyph unicode="&#xb6;" horiz-adv-x="1202" d="M1108 -408h-178v1756h-113v-1756h-295v187l115 12v721h-53q-504 0 -504 496v22q0 147 38 246.5t112.5 152t163.5 73t214 20.5h500v-1930z" />
<glyph unicode="&#xb7;" horiz-adv-x="415" d="M326 582h-236v299h236v-299z" />
<glyph unicode="&#xb8;" horiz-adv-x="690" d="M510 -125l-217 -293h-211l174 293h254z" />
<glyph unicode="&#xb9;" horiz-adv-x="673" d="M592 614h-500v136l154 8v583l-154 -55v162l205 84h141v-774l154 -8v-136z" />
<glyph unicode="&#xba;" horiz-adv-x="714" d="M641 1182q0 -309 -283 -310q-285 0 -284 310v94q0 309 284 309q283 0 283 -309v-94zM467 1182v94q0 94 -24.5 131t-84 37t-85 -37t-25.5 -131v-94q0 -94 25.5 -130t85 -36t84 36t24.5 130z" />
<glyph unicode="&#xbb;" horiz-adv-x="909" d="M858 573l-219 -434h-219l213 434l-213 435h219zM489 573l-219 435h-219l213 -435l-213 -434h219z" />
<glyph unicode="&#xbc;" horiz-adv-x="1607" d="M1542 217h-106v-106l53 -7v-104h-297v104l53 7v106h-358v145l379 551h170v-557h106v-139zM1253 356v322l-213 -322h213zM1319 1524l-741 -1524h-207l741 1524h207zM575 614h-499v136l153 8v583l-153 -55v162l203 84h143v-774l153 -8v-136z" />
<glyph unicode="&#xbd;" horiz-adv-x="1744" d="M1657 0h-559v117q0 154 49 230.5t186 168.5q94 61 120 94t26 82q0 53 -33 74.5t-117 21.5q-43 0 -92 -6l-10 -75h-121v192q119 31 254 31q160 0 235.5 -55.5t75.5 -174.5q0 -84 -45 -147.5t-166 -140.5q-115 -76 -144.5 -118t-29.5 -132v-15h238l12 70h121v-217z M1319 1524l-741 -1524h-207l741 1524h207zM575 614h-499v136l153 8v583l-153 -55v162l203 84h143v-774l153 -8v-136z" />
<glyph unicode="&#xbe;" horiz-adv-x="1671" d="M1599 217h-106v-106l53 -7v-104h-299v104l53 7v106h-356v145l379 551h170v-557h106v-139zM1309 356v322l-211 -322h211zM1350 1524l-742 -1524h-209l742 1524h209zM633 864q0 -143 -77 -204.5t-239 -61.5q-129 0 -249 35v192h120l11 -80q61 -4 98 -4q80 0 112.5 26 t32.5 105v25q0 63 -24.5 92t-93.5 29h-215v133h215q70 0 94 28.5t24 90.5v16q0 70 -30.5 93.5t-116.5 23.5q-63 0 -94 -4l-13 -76h-118v193q111 31 247 30q162 0 239 -57t77 -193v-16q0 -139 -98 -197q98 -51 98 -192v-27z" />
<glyph unicode="&#xbf;" horiz-adv-x="817" d="M764 -416q-145 -39 -299 -39q-205 0 -296 73t-91 259v12q0 182 139 369q113 150 144.5 216.5t31.5 158.5v86h211v-86q0 -127 -25.5 -213t-113.5 -209q-70 -96 -96.5 -161.5t-26.5 -137.5v-10q0 -90 35 -122t121 -32q63 0 88 2l20 111h158v-277zM614 1143v-299h-233v299 h233z" />
<glyph unicode="&#xc0;" horiz-adv-x="1208" d="M449 0h-408v184l82 9l252 1134l-84 12v183h495l297 -1329l84 -9v-184h-409v182l69 8l-55 265h-338l-57 -265l72 -8v-182zM735 662l-86 407q-12 53 -39 266h-12q-27 -207 -39 -266l-88 -407h264zM752 1618h-215l-242 303h260z" />
<glyph unicode="&#xc1;" horiz-adv-x="1208" d="M449 0h-408v184l82 9l252 1134l-84 12v183h495l297 -1329l84 -9v-184h-409v182l69 8l-55 265h-338l-57 -265l72 -8v-182zM735 662l-86 407q-12 53 -39 266h-12q-27 -207 -39 -266l-88 -407h264zM932 1921l-240 -303h-217l199 303h258z" />
<glyph unicode="&#xc2;" horiz-adv-x="1208" d="M449 0h-408v184l82 9l252 1134l-84 12v183h495l297 -1329l84 -9v-184h-409v182l69 8l-55 265h-338l-57 -265l72 -8v-182zM735 662l-86 407q-12 53 -39 266h-12q-27 -207 -39 -266l-88 -407h264zM961 1618h-205l-152 194l-151 -194h-205l209 303h295z" />
<glyph unicode="&#xc3;" horiz-adv-x="1208" d="M449 0h-408v184l82 9l252 1134l-84 12v183h495l297 -1329l84 -9v-184h-409v182l69 8l-55 265h-338l-57 -265l72 -8v-182zM735 662l-86 407q-12 53 -39 266h-12q-27 -207 -39 -266l-88 -407h264zM973 1849q0 -240 -199 -239q-117 0 -188 78l-62 63q-27 27 -39 35t-36 8 q-55 0 -56 -90v-86h-153v86q0 115 51 177.5t149 62.5q102 0 176 -76l62 -64q45 -45 90 -45q49 0 49 90v86h156v-86z" />
<glyph unicode="&#xc4;" horiz-adv-x="1208" d="M449 0h-408v184l82 9l252 1134l-84 12v183h495l297 -1329l84 -9v-184h-409v182l69 8l-55 265h-338l-57 -265l72 -8v-182zM735 662l-86 407q-12 53 -39 266h-12q-27 -207 -39 -266l-88 -407h264zM905 1642h-205v240h205v-240zM512 1642v240h-207v-240h207z" />
<glyph unicode="&#xc5;" horiz-adv-x="1208" d="M449 0h-408v184l82 9l252 1134l-84 12v183h495l297 -1329l84 -9v-184h-409v182l69 8l-55 265h-338l-57 -265l72 -8v-182zM735 662l-86 407q-12 53 -39 266h-12q-27 -207 -39 -266l-88 -407h264zM840 1792q0 -115 -63.5 -174t-170 -59t-172 59t-65.5 174q0 117 65.5 176.5 t172 59.5t170 -59.5t63.5 -176.5zM700 1792q0 113 -94 113t-94 -113q0 -111 94 -111t94 111z" />
<glyph unicode="&#xc6;" horiz-adv-x="1583" d="M1507 0h-835v182l80 11v262h-316l-98 -455h-299v182l84 13l254 1132l-86 10v185h1216v-308h-166l-18 103h-324v-430h476v-201h-476v-481h322l20 106h166v-311zM752 655v678h-142l-47 -235l-92 -443h281z" />
<glyph unicode="&#xc7;" horiz-adv-x="944" d="M879 16q-152 -41 -304 -41q-94 0 -164.5 14.5t-138 54.5t-109.5 107.5t-67.5 181t-25.5 267.5v322q0 193 36.5 319.5t109.5 191t157 88t202 23.5q158 0 304 -39v-293h-168l-21 117q-16 0 -49 1t-49 1q-98 0 -152.5 -28.5t-88.5 -119.5t-34 -261v-322q0 -248 64.5 -330 t212.5 -82q35 0 96 5l21 120h168v-297zM668 -125l-217 -293h-211l174 293h254z" />
<glyph unicode="&#xc8;" horiz-adv-x="962" d="M897 0h-838v182l80 11v1136l-80 10v183h838v-308h-168l-18 103h-324v-430h477v-201h-477v-481h324l18 106h168v-311zM657 1620h-215l-241 303h260z" />
<glyph unicode="&#xc9;" horiz-adv-x="962" d="M897 0h-838v182l80 11v1136l-80 10v183h838v-308h-168l-18 103h-324v-430h477v-201h-477v-481h324l18 106h168v-311zM829 1923l-239 -303h-217l198 303h258z" />
<glyph unicode="&#xca;" horiz-adv-x="962" d="M897 0h-838v182l80 11v1136l-80 10v183h838v-308h-168l-18 103h-324v-430h477v-201h-477v-481h324l18 106h168v-311zM862 1620h-205l-151 195l-152 -195h-204l208 303h295z" />
<glyph unicode="&#xcb;" horiz-adv-x="962" d="M897 0h-838v182l80 11v1136l-80 10v183h838v-308h-168l-18 103h-324v-430h477v-201h-477v-481h324l18 106h168v-311zM813 1645h-205v239h205v-239zM420 1645v239h-207v-239h207z" />
<glyph unicode="&#xcc;" horiz-adv-x="536" d="M473 0h-412v184l84 9v1136l-84 10v183h412v-183l-82 -10v-1136l82 -9v-184zM416 1620h-215l-242 303h260z" />
<glyph unicode="&#xcd;" horiz-adv-x="536" d="M473 0h-412v184l84 9v1136l-84 10v183h412v-183l-82 -10v-1136l82 -9v-184zM575 1923l-239 -303h-217l198 303h258z" />
<glyph unicode="&#xce;" horiz-adv-x="536" d="M473 0h-412v184l84 9v1136l-84 10v183h412v-183l-82 -10v-1136l82 -9v-184zM623 1620h-205l-152 195l-151 -195h-205l209 303h295z" />
<glyph unicode="&#xcf;" horiz-adv-x="536" d="M473 0h-412v184l84 9v1136l-84 10v183h412v-183l-82 -10v-1136l82 -9v-184zM567 1645h-205v239h205v-239zM174 1645v239h-207v-239h207z" />
<glyph unicode="&#xd0;" horiz-adv-x="1136" d="M1061 610q0 -303 -122 -459.5t-433 -156.5q-227 0 -447 6v186l84 13v489h-84v197h84v438l-84 14v185q195 8 447 8q307 0 431 -155.5t124 -456.5v-308zM813 610v308q0 229 -64.5 316t-240.5 87h-121v-436h193v-197h-193v-487h121q174 0 239.5 90t65.5 319z" />
<glyph unicode="&#xd1;" horiz-adv-x="1228" d="M772 1522h395v-183l-82 -10v-1329h-288l-359 971q-43 113 -80 231h-4q14 -162 15 -293v-716l84 -11v-182h-394v184l82 9v1136l-82 10v183h373l352 -932q55 -145 82 -238h4q-14 186 -14 307v670l-84 10v183zM987 1853q0 -240 -199 -239q-117 0 -188 78l-61 63 q-27 27 -39.5 35t-36.5 8q-55 0 -55 -90v-86h-154v86q0 115 51 177.5t150 62.5q102 0 176 -76l61 -64q45 -45 90 -45q49 0 49 90v86h156v-86z" />
<glyph unicode="&#xd2;" horiz-adv-x="1110" d="M1040 621q0 -645 -485 -645.5t-485 645.5v280q0 643 485 643t485 -643v-280zM795 621v280q0 229 -56.5 330.5t-183.5 101.5q-125 0 -181.5 -101.5t-56.5 -330.5v-280q0 -229 55.5 -332t182.5 -103t183.5 103t56.5 332zM711 1620h-215l-242 303h260z" />
<glyph unicode="&#xd3;" horiz-adv-x="1110" d="M1040 621q0 -645 -485 -645.5t-485 645.5v280q0 643 485 643t485 -643v-280zM795 621v280q0 229 -56.5 330.5t-183.5 101.5q-125 0 -181.5 -101.5t-56.5 -330.5v-280q0 -229 55.5 -332t182.5 -103t183.5 103t56.5 332zM860 1923l-239 -303h-218l199 303h258z" />
<glyph unicode="&#xd4;" horiz-adv-x="1110" d="M1040 621q0 -645 -485 -645.5t-485 645.5v280q0 643 485 643t485 -643v-280zM795 621v280q0 229 -56.5 330.5t-183.5 101.5q-125 0 -181.5 -101.5t-56.5 -330.5v-280q0 -229 55.5 -332t182.5 -103t183.5 103t56.5 332zM911 1620h-204l-152 195l-152 -195h-204l209 303 h294z" />
<glyph unicode="&#xd5;" horiz-adv-x="1110" d="M1040 621q0 -645 -485 -645.5t-485 645.5v280q0 643 485 643t485 -643v-280zM795 621v280q0 229 -56.5 330.5t-183.5 101.5q-125 0 -181.5 -101.5t-56.5 -330.5v-280q0 -229 55.5 -332t182.5 -103t183.5 103t56.5 332zM922 1853q0 -240 -199 -239q-117 0 -188 78l-62 63 q-27 27 -39 35t-37 8q-55 0 -55 -90v-86h-154v86q0 115 51.5 177.5t149.5 62.5q102 0 176 -76l62 -64q45 -45 90 -45q49 0 49 90v86h156v-86z" />
<glyph unicode="&#xd6;" horiz-adv-x="1110" d="M1040 621q0 -645 -485 -645.5t-485 645.5v280q0 643 485 643t485 -643v-280zM795 621v280q0 229 -56.5 330.5t-183.5 101.5q-125 0 -181.5 -101.5t-56.5 -330.5v-280q0 -229 55.5 -332t182.5 -103t183.5 103t56.5 332zM856 1645h-205v239h205v-239zM463 1645v239h-207 v-239h207z" />
<glyph unicode="&#xd7;" horiz-adv-x="1048" d="M901 553l-131 -125l-246 242l-248 -244l-129 125l248 246l-250 245l129 127l250 -245l248 243l129 -125l-248 -245z" />
<glyph unicode="&#xd8;" horiz-adv-x="1110" d="M1040 621q0 -645 -485 -646q-184 0 -301 95l-49 -84h-187l127 223q-76 154 -75 412v280q0 643 485 643q188 0 303 -96l51 88h187l-131 -227q76 -154 75 -408v-280zM317 621q0 -76 2 -109l416 723q-57 98 -180 98q-125 0 -181.5 -101.5t-56.5 -330.5v-280zM795 621v280 q0 39 -4 105l-416 -723q57 -96 180 -97q127 0 183.5 103t56.5 332z" />
<glyph unicode="&#xd9;" horiz-adv-x="1212" d="M741 1522h412v-183l-82 -10v-766q0 -588 -465 -588q-463 0 -463 588v766l-84 10v183h414v-183l-84 -10v-737q0 -229 43 -318.5t174 -89.5t175 89t44 319v737l-84 10v183zM752 1620h-215l-242 303h260z" />
<glyph unicode="&#xda;" horiz-adv-x="1212" d="M741 1522h412v-183l-82 -10v-766q0 -588 -465 -588q-463 0 -463 588v766l-84 10v183h414v-183l-84 -10v-737q0 -229 43 -318.5t174 -89.5t175 89t44 319v737l-84 10v183zM926 1923l-240 -303h-217l199 303h258z" />
<glyph unicode="&#xdb;" horiz-adv-x="1212" d="M741 1522h412v-183l-82 -10v-766q0 -588 -465 -588q-463 0 -463 588v766l-84 10v183h414v-183l-84 -10v-737q0 -229 43 -318.5t174 -89.5t175 89t44 319v737l-84 10v183zM961 1620h-205l-152 195l-151 -195h-205l209 303h295z" />
<glyph unicode="&#xdc;" horiz-adv-x="1212" d="M741 1522h412v-183l-82 -10v-766q0 -588 -465 -588q-463 0 -463 588v766l-84 10v183h414v-183l-84 -10v-737q0 -229 43 -318.5t174 -89.5t175 89t44 319v737l-84 10v183zM905 1645h-205v239h205v-239zM512 1645v239h-207v-239h207z" />
<glyph unicode="&#xdd;" horiz-adv-x="1054" d="M621 1522h393v-183l-84 -12l-281 -733v-401l82 -11v-182h-409v182l84 11v399l-283 735l-82 12v183h397v-183l-69 -8l90 -258q35 -96 67 -229h4q23 104 68 229l90 258l-67 8v183zM862 1923l-239 -303h-217l198 303h258z" />
<glyph unicode="&#xde;" horiz-adv-x="1069" d="M1012 764q0 -137 -39 -232.5t-112 -144.5t-160 -69.5t-201 -20.5h-111v-104l84 -11v-182h-414v182l84 11v1136l-84 10v183h414v-183l-84 -10v-76h109q94 0 165.5 -11t139 -41t111.5 -80t71 -132t27 -192v-33zM766 764v33q0 150 -60.5 200t-209.5 50h-107v-543h109 q147 0 207.5 55t60.5 205z" />
<glyph unicode="&#xdf;" horiz-adv-x="1048" d="M985 426q0 -207 -90 -324.5t-313 -117.5q-55 0 -111 8v184h70q121 0 165 57.5t44 196.5v59q0 121 -45.5 180.5t-163.5 59.5h-70v172h70q109 0 149.5 57.5t40.5 180.5v28q0 117 -38 174.5t-142 57.5q-109 0 -149 -68.5t-40 -236.5v-1094h-317v184l82 13v897 q0 113 18.5 196.5t63.5 156.5t131 110.5t211 37.5q412 0 412 -424v-28q0 -219 -150 -320q172 -94 172 -338v-59z" />
<glyph unicode="&#xe0;" d="M899 0h-297v63q-113 -86 -266 -86q-270 0 -270 312v57q0 193 105 264.5t321 71.5h88v96q0 123 -32 159t-147 36q-63 0 -96 -2l-20 -99h-162v240q145 53 323 53q211 0 291 -87t80 -300v-585l82 -11v-182zM586 203v332h-92q-115 0 -157 -37t-42 -148v-74q0 -74 26.5 -100 t86.5 -26q96 0 178 53zM616 1262h-215l-241 303h260z" />
<glyph unicode="&#xe1;" d="M899 0h-297v63q-113 -86 -266 -86q-270 0 -270 312v57q0 193 105 264.5t321 71.5h88v96q0 123 -32 159t-147 36q-63 0 -96 -2l-20 -99h-162v240q145 53 323 53q211 0 291 -87t80 -300v-585l82 -11v-182zM586 203v332h-92q-115 0 -157 -37t-42 -148v-74q0 -74 26.5 -100 t86.5 -26q96 0 178 53zM807 1565l-240 -303h-217l199 303h258z" />
<glyph unicode="&#xe2;" d="M899 0h-297v63q-113 -86 -266 -86q-270 0 -270 312v57q0 193 105 264.5t321 71.5h88v96q0 123 -32 159t-147 36q-63 0 -96 -2l-20 -99h-162v240q145 53 323 53q211 0 291 -87t80 -300v-585l82 -11v-182zM586 203v332h-92q-115 0 -157 -37t-42 -148v-74q0 -74 26.5 -100 t86.5 -26q96 0 178 53zM827 1262h-204l-152 194l-152 -194h-204l209 303h294z" />
<glyph unicode="&#xe3;" d="M899 0h-297v63q-113 -86 -266 -86q-270 0 -270 312v57q0 193 105 264.5t321 71.5h88v96q0 123 -32 159t-147 36q-63 0 -96 -2l-20 -99h-162v240q145 53 323 53q211 0 291 -87t80 -300v-585l82 -11v-182zM586 203v332h-92q-115 0 -157 -37t-42 -148v-74q0 -74 26.5 -100 t86.5 -26q96 0 178 53zM840 1493q0 -240 -199 -240q-117 0 -188 78l-62 64q-27 27 -39 35t-37 8q-55 0 -55 -90v-86h-154v86q0 115 51.5 177t149.5 62q102 0 176 -76l62 -63q45 -45 90 -45q49 0 49 90v86h156v-86z" />
<glyph unicode="&#xe4;" d="M899 0h-297v63q-113 -86 -266 -86q-270 0 -270 312v57q0 193 105 264.5t321 71.5h88v96q0 123 -32 159t-147 36q-63 0 -96 -2l-20 -99h-162v240q145 53 323 53q211 0 291 -87t80 -300v-585l82 -11v-182zM586 203v332h-92q-115 0 -157 -37t-42 -148v-74q0 -74 26.5 -100 t86.5 -26q96 0 178 53zM778 1305h-205v239h205v-239zM385 1305v239h-207v-239h207z" />
<glyph unicode="&#xe5;" d="M899 0h-297v63q-113 -86 -266 -86q-270 0 -270 312v57q0 193 105 264.5t321 71.5h88v96q0 123 -32 159t-147 36q-63 0 -96 -2l-20 -99h-162v240q145 53 323 53q211 0 291 -87t80 -300v-585l82 -11v-182zM586 203v332h-92q-115 0 -157 -37t-42 -148v-74q0 -74 26.5 -100 t86.5 -26q96 0 178 53zM702 1460q0 -115 -63.5 -174t-170 -59t-172 59.5t-65.5 173.5q0 117 65.5 176.5t172 59.5t170 -59.5t63.5 -176.5zM563 1460q0 113 -94 113t-94 -113q0 -111 94 -111t94 111z" />
<glyph unicode="&#xe6;" horiz-adv-x="1456" d="M1395 496h-582v-27q0 -180 41 -241.5t188 -61.5q170 0 316 27v-170q-139 -45 -336 -46q-248 0 -342 117q-156 -117 -346 -117q-268 0 -268 312v57q0 193 104 264.5t322 71.5h88v96q0 123 -32 159t-145 36q-76 0 -98 -2l-20 -99h-162v240q137 53 323 53q201 0 279 -86 q98 86 262 86q221 0 314.5 -137t93.5 -403v-129zM1161 657v25q0 152 -33.5 222.5t-138 70.5t-139.5 -70.5t-35 -222.5v-25h346zM586 203v332h-92q-115 0 -157 -37t-42 -148v-74q0 -74 26.5 -100t84.5 -26q92 0 180 53z" />
<glyph unicode="&#xe7;" horiz-adv-x="800" d="M741 20q-117 -43 -280 -43q-209 0 -299 121t-90 363v223q0 242 90 361.5t299 119.5q178 0 280 -43v-252h-161l-19 97q-20 2 -63 2q-104 0 -147.5 -56.5t-43.5 -228.5v-223q0 -172 43 -229.5t148 -57.5q74 0 243 16v-170zM590 -125l-217 -293h-211l174 293h254z" />
<glyph unicode="&#xe8;" horiz-adv-x="944" d="M883 496h-580v-27q0 -180 41 -239.5t186 -59.5q160 0 316 27v-174q-135 -45 -332 -46q-242 0 -344 113t-102 404v137q0 270 99 402t308 132q221 0 314.5 -137t93.5 -410v-122zM649 657v25q0 152 -33.5 222.5t-138 70.5t-139.5 -70.5t-35 -222.5v-25h346zM637 1262h-215 l-242 303h260z" />
<glyph unicode="&#xe9;" horiz-adv-x="944" d="M883 496h-580v-27q0 -180 41 -239.5t186 -59.5q160 0 316 27v-174q-135 -45 -332 -46q-242 0 -344 113t-102 404v137q0 270 99 402t308 132q221 0 314.5 -137t93.5 -410v-122zM649 657v25q0 152 -33.5 222.5t-138 70.5t-139.5 -70.5t-35 -222.5v-25h346zM784 1565 l-239 -303h-217l198 303h258z" />
<glyph unicode="&#xea;" horiz-adv-x="944" d="M883 496h-580v-27q0 -180 41 -239.5t186 -59.5q160 0 316 27v-174q-135 -45 -332 -46q-242 0 -344 113t-102 404v137q0 270 99 402t308 132q221 0 314.5 -137t93.5 -410v-122zM649 657v25q0 152 -33.5 222.5t-138 70.5t-139.5 -70.5t-35 -222.5v-25h346zM836 1262h-205 l-152 194l-151 -194h-205l209 303h295z" />
<glyph unicode="&#xeb;" horiz-adv-x="944" d="M883 496h-580v-27q0 -180 41 -239.5t186 -59.5q160 0 316 27v-174q-135 -45 -332 -46q-242 0 -344 113t-102 404v137q0 270 99 402t308 132q221 0 314.5 -137t93.5 -410v-122zM649 657v25q0 152 -33.5 222.5t-138 70.5t-139.5 -70.5t-35 -222.5v-25h346zM770 1305h-205 v239h205v-239zM377 1305v239h-207v-239h207z" />
<glyph unicode="&#xec;" horiz-adv-x="507" d="M379 1262h-215l-242 303h260zM453 0h-400v184l82 9v755l-82 10v185h318v-950l82 -9v-184z" />
<glyph unicode="&#xed;" horiz-adv-x="507" d="M535 1565l-240 -303h-217l198 303h259zM453 0h-400v184l82 9v755l-82 10v185h318v-950l82 -9v-184z" />
<glyph unicode="&#xee;" horiz-adv-x="507" d="M453 0h-400v184l82 9v755l-82 10v185h318v-950l82 -9v-184zM606 1262h-205l-151 194l-152 -194h-204l208 303h295z" />
<glyph unicode="&#xef;" horiz-adv-x="507" d="M553 1305h-205v239h205v-239zM160 1305v239h-207v-239h207zM453 0h-400v184l82 9v755l-82 10v185h318v-950l82 -9v-184z" />
<glyph unicode="&#xf0;" horiz-adv-x="956" d="M887 471q0 -254 -102.5 -372.5t-307.5 -118.5q-203 0 -305 116.5t-102 366.5v196q0 485 403 486q78 0 139 -33q-49 162 -170 244l-178 -152l-88 84l137 127q-78 23 -166 23h-45v161q49 4 70 5q158 0 285 -50l106 91l92 -86l-75 -70q307 -205 307 -815v-203zM651 463v207 q0 154 -41 216t-133 62t-133 -63.5t-41 -222.5v-199q0 -162 40 -225.5t134 -63.5q92 0 133 63.5t41 225.5z" />
<glyph unicode="&#xf1;" horiz-adv-x="1060" d="M1008 0h-318v774q0 117 -21.5 158t-88.5 41q-82 0 -209 -70v-710l82 -11v-182h-400v182l82 11v757l-82 11v182h307v-78q152 100 285 100q172 0 226.5 -94t54.5 -297v-581l82 -11v-182zM889 1495q0 -240 -199 -240q-117 0 -188 78l-62 64q-27 27 -39 35t-36 8 q-55 0 -56 -90v-86h-153v86q0 115 51 177t149 62q102 0 176 -76l62 -63q45 -45 90 -45q49 0 49 90v86h156v-86z" />
<glyph unicode="&#xf2;" horiz-adv-x="956" d="M887 463q0 -252 -103.5 -369t-306.5 -117q-408 0 -407 486v217q0 485 407 485q203 0 306.5 -116.5t103.5 -368.5v-217zM651 463v217q0 160 -40 224.5t-134 64.5q-92 0 -133 -63.5t-41 -225.5v-217q0 -160 41 -224.5t133 -64.5q94 0 134 63.5t40 225.5zM633 1262h-215 l-242 303h260z" />
<glyph unicode="&#xf3;" horiz-adv-x="956" d="M887 463q0 -252 -103.5 -369t-306.5 -117q-408 0 -407 486v217q0 485 407 485q203 0 306.5 -116.5t103.5 -368.5v-217zM651 463v217q0 160 -40 224.5t-134 64.5q-92 0 -133 -63.5t-41 -225.5v-217q0 -160 41 -224.5t133 -64.5q94 0 134 63.5t40 225.5zM799 1565 l-240 -303h-217l199 303h258z" />
<glyph unicode="&#xf4;" horiz-adv-x="956" d="M887 463q0 -252 -103.5 -369t-306.5 -117q-408 0 -407 486v217q0 485 407 485q203 0 306.5 -116.5t103.5 -368.5v-217zM651 463v217q0 160 -40 224.5t-134 64.5q-92 0 -133 -63.5t-41 -225.5v-217q0 -160 41 -224.5t133 -64.5q94 0 134 63.5t40 225.5zM834 1262h-205 l-152 194l-151 -194h-205l209 303h295z" />
<glyph unicode="&#xf5;" horiz-adv-x="956" d="M887 463q0 -252 -103.5 -369t-306.5 -117q-408 0 -407 486v217q0 485 407 485q203 0 306.5 -116.5t103.5 -368.5v-217zM651 463v217q0 160 -40 224.5t-134 64.5q-92 0 -133 -63.5t-41 -225.5v-217q0 -160 41 -224.5t133 -64.5q94 0 134 63.5t40 225.5zM846 1495 q0 -240 -199 -240q-117 0 -188 78l-62 64q-27 27 -39 35t-36 8q-55 0 -56 -90v-86h-153v86q0 115 51 177t149 62q102 0 176 -76l62 -63q45 -45 90 -45q49 0 49 90v86h156v-86z" />
<glyph unicode="&#xf6;" horiz-adv-x="956" d="M887 463q0 -252 -103.5 -369t-306.5 -117q-408 0 -407 486v217q0 485 407 485q203 0 306.5 -116.5t103.5 -368.5v-217zM651 463v217q0 160 -40 224.5t-134 64.5q-92 0 -133 -63.5t-41 -225.5v-217q0 -160 41 -224.5t133 -64.5q94 0 134 63.5t40 225.5zM778 1305h-205v239 h205v-239zM385 1305v239h-207v-239h207z" />
<glyph unicode="&#xf7;" horiz-adv-x="1048" d="M643 231h-235v279h235v-279zM920 707v186h-791v-186h791zM643 1081h-235v279h235v-279z" />
<glyph unicode="&#xf8;" horiz-adv-x="956" d="M887 463q0 -252 -103.5 -369t-306.5 -117q-125 0 -213 43l-47 -81h-190l114 198q-72 119 -71 326v217q0 485 407 485q135 0 225 -51l52 90h190l-123 -213q66 -115 66 -311v-217zM303 463v-43l291 508q-41 41 -117 41q-92 0 -133 -63.5t-41 -225.5v-217zM651 463v217v14 l-280 -489q37 -31 106 -31q94 0 134 63.5t40 225.5z" />
<glyph unicode="&#xf9;" horiz-adv-x="1060" d="M1008 0h-312v78q-156 -100 -293 -101q-70 0 -120 21.5t-78.5 55.5t-44 88.5t-20.5 105.5t-5 121v581l-82 11v182h318v-774q0 -119 21.5 -159t92.5 -40q78 0 205 70v710l-82 11v182h318v-950l82 -11v-182zM672 1262h-215l-242 303h260z" />
<glyph unicode="&#xfa;" horiz-adv-x="1060" d="M1008 0h-312v78q-156 -100 -293 -101q-70 0 -120 21.5t-78.5 55.5t-44 88.5t-20.5 105.5t-5 121v581l-82 11v182h318v-774q0 -119 21.5 -159t92.5 -40q78 0 205 70v710l-82 11v182h318v-950l82 -11v-182zM836 1565l-240 -303h-217l199 303h258z" />
<glyph unicode="&#xfb;" horiz-adv-x="1060" d="M1008 0h-312v78q-156 -100 -293 -101q-70 0 -120 21.5t-78.5 55.5t-44 88.5t-20.5 105.5t-5 121v581l-82 11v182h318v-774q0 -119 21.5 -159t92.5 -40q78 0 205 70v710l-82 11v182h318v-950l82 -11v-182zM883 1262h-205l-152 194l-151 -194h-205l209 303h295z" />
<glyph unicode="&#xfc;" horiz-adv-x="1060" d="M1008 0h-312v78q-156 -100 -293 -101q-70 0 -120 21.5t-78.5 55.5t-44 88.5t-20.5 105.5t-5 121v581l-82 11v182h318v-774q0 -119 21.5 -159t92.5 -40q78 0 205 70v710l-82 11v182h318v-950l82 -11v-182zM823 1305h-205v239h205v-239zM430 1305v239h-207v-239h207z" />
<glyph unicode="&#xfd;" horiz-adv-x="1050" d="M600 1143h406v-182l-93 -11l-245 -983q-27 -113 -52.5 -179.5t-66.5 -123.5t-104.5 -80.5t-155.5 -23.5q-117 0 -211 26v168q102 -6 162 -6q80 0 107.5 40t58.5 179l8 37l-275 946l-96 11v182h408v-185l-72 -8l94 -401q35 -152 59 -316h5q23 174 51 312l86 405l-74 8v185 zM893 1565l-240 -303h-217l199 303h258z" />
<glyph unicode="&#xfe;" horiz-adv-x="995" d="M926 463q0 -260 -102.5 -373t-301.5 -113q-68 0 -149 17v-219l80 -8v-183h-400v183l82 8v1609l-82 11v182h305v-498q117 86 252 86q166 0 241 -110.5t75 -345.5v-246zM690 463v246q0 145 -32.5 201.5t-114.5 56.5q-80 0 -174 -52v-727q86 -16 141 -16q96 0 138 58.5 t42 232.5z" />
<glyph unicode="&#xff;" horiz-adv-x="1050" d="M600 1143h406v-182l-93 -11l-245 -983q-27 -113 -52.5 -179.5t-66.5 -123.5t-104.5 -80.5t-155.5 -23.5q-117 0 -211 26v168q102 -6 162 -6q80 0 107.5 40t58.5 179l8 37l-275 946l-96 11v182h408v-185l-72 -8l94 -401q35 -152 59 -316h5q23 174 51 312l86 405l-74 8v185 zM834 1305h-205v239h205v-239zM440 1305v239h-207v-239h207z" />
<glyph unicode="&#x152;" horiz-adv-x="1566" d="M1483 0h-676q-156 -25 -238 -25q-256 0 -374.5 161t-118.5 482v283q0 322 118.5 482.5t374.5 160.5q94 0 238 -22h676v-308h-168l-19 103h-325v-430h479v-201h-479v-481h325l19 106h168v-311zM727 199v1120q-80 14 -152 14q-135 0 -193 -100t-58 -332v-283 q0 -229 58 -330.5t193 -101.5q78 1 152 13z" />
<glyph unicode="&#x153;" horiz-adv-x="1529" d="M1468 496h-579v-27q0 -180 41 -241.5t188 -61.5q170 0 316 27v-170q-139 -45 -336 -46q-233 0 -328 111q-102 -111 -291 -111q-203 0 -306 117t-103 369v217q0 485 409 485q195 0 293 -114q92 115 289 114q221 0 314 -137t93 -403v-129zM1237 657v25q0 152 -35 223.5 t-139 71.5q-102 0 -137 -64.5t-37 -191.5v-64h348zM653 463v217q0 160 -41 224.5t-133 64.5t-133 -63.5t-41 -225.5v-217q0 -160 40 -224.5t134 -64.5q92 0 133 63.5t41 225.5z" />
<glyph unicode="&#x178;" horiz-adv-x="1054" d="M621 1522h393v-183l-84 -12l-281 -733v-401l82 -11v-182h-409v182l84 11v399l-283 735l-82 12v183h397v-183l-69 -8l90 -258q35 -96 67 -229h4q23 104 68 229l90 258l-67 8v183zM827 1663h-204v240h204v-240zM434 1663v240h-207v-240h207z" />
<glyph unicode="&#x2c6;" horiz-adv-x="757" d="M735 1262h-205l-151 194l-152 -194h-204l208 303h295z" />
<glyph unicode="&#x2dc;" horiz-adv-x="747" d="M743 1495q0 -240 -198 -240q-117 0 -189 78l-61 64q-27 27 -39 35t-37 8q-55 0 -55 -90v-86h-154v86q0 115 51.5 177t149.5 62q102 0 176 -76l62 -63q45 -45 90 -45q49 0 49 90v86h155v-86z" />
<glyph unicode="&#x2000;" horiz-adv-x="1013" />
<glyph unicode="&#x2001;" horiz-adv-x="2027" />
<glyph unicode="&#x2002;" horiz-adv-x="1013" />
<glyph unicode="&#x2003;" horiz-adv-x="2027" />
<glyph unicode="&#x2004;" horiz-adv-x="675" />
<glyph unicode="&#x2005;" horiz-adv-x="505" />
<glyph unicode="&#x2006;" horiz-adv-x="337" />
<glyph unicode="&#x2007;" horiz-adv-x="337" />
<glyph unicode="&#x2008;" horiz-adv-x="251" />
<glyph unicode="&#x2009;" horiz-adv-x="405" />
<glyph unicode="&#x200a;" horiz-adv-x="112" />
<glyph unicode="&#x2010;" horiz-adv-x="567" d="M496 510h-424v182h424v-182z" />
<glyph unicode="&#x2011;" horiz-adv-x="567" d="M496 510h-424v182h424v-182z" />
<glyph unicode="&#x2012;" horiz-adv-x="567" d="M496 510h-424v182h424v-182z" />
<glyph unicode="&#x2013;" horiz-adv-x="733" d="M662 510h-590v182h590v-182z" />
<glyph unicode="&#x2014;" horiz-adv-x="1003" d="M932 510h-860v182h860v-182z" />
<glyph unicode="&#x2018;" horiz-adv-x="434" d="M373 1577l-82 -483h-230l136 483h176z" />
<glyph unicode="&#x2019;" horiz-adv-x="434" d="M373 1577l-135 -483h-177l82 483h230z" />
<glyph unicode="&#x201a;" horiz-adv-x="434" d="M373 293l-135 -483h-177l82 483h230z" />
<glyph unicode="&#x201c;" horiz-adv-x="794" d="M733 1577l-82 -483h-229l135 483h176zM373 1577l-82 -483h-230l136 483h176z" />
<glyph unicode="&#x201d;" horiz-adv-x="794" d="M733 1577l-135 -483h-176l82 483h229zM373 1577l-135 -483h-177l82 483h230z" />
<glyph unicode="&#x201e;" horiz-adv-x="794" d="M733 293l-135 -483h-176l82 483h229zM373 293h-230l-82 -483h177z" />
<glyph unicode="&#x2022;" horiz-adv-x="856" d="M756 752q0 -133 -95.5 -227.5t-232.5 -94.5q-135 0 -231.5 94t-96.5 228q0 135 96.5 230t231.5 95q137 0 232.5 -95t95.5 -230z" />
<glyph unicode="&#x2026;" horiz-adv-x="1417" d="M1321 0h-234v299h234v-299zM827 0v299h-235v-299h235zM330 0h-234v299h234v-299z" />
<glyph unicode="&#x202f;" horiz-adv-x="405" />
<glyph unicode="&#x2039;" horiz-adv-x="540" d="M489 139h-219l-219 434l219 435h219l-213 -435z" />
<glyph unicode="&#x203a;" horiz-adv-x="540" d="M489 573l-219 -434h-219l213 434l-213 435h219z" />
<glyph unicode="&#x205f;" horiz-adv-x="505" />
<glyph unicode="&#x20ac;" horiz-adv-x="1056" d="M979 16q-127 -41 -301 -41q-80 0 -141.5 10.5t-126 45.5t-107.5 94t-75.5 162.5t-41.5 244.5h-116v140h108v182h-108v139h114q10 174 52.5 290t114 169t145 72.5t176.5 19.5q186 0 307 -39v-280h-166l-20 106q-29 2 -88 2q-63 0 -101.5 -9t-77.5 -41t-60.5 -102.5 t-29.5 -187.5h488l-29 -139h-467q0 -123 2 -182h422l-27 -140h-387q8 -119 29.5 -191.5t61.5 -104t78 -41t102 -9.5q90 0 270 21v-191z" />
<glyph unicode="&#x2122;" horiz-adv-x="1542" d="M952 715h-274v125l51 8v553l-51 6v125h244l120 -262q14 -31 37 -94h2q18 55 37 94l123 262h242v-125l-49 -6v-553l49 -8v-125h-275v125l52 8v291q0 74 6 151h-2q-23 -72 -47 -121l-80 -161h-113l-78 161q-27 53 -49 121h-2q6 -78 6 -151v-291l51 -8v-125zM627 1337h-105 l-10 58h-82v-547l49 -8v-123h-276v123l49 8v547h-82l-12 -58h-103v195h572v-195z" />
<glyph unicode="&#xe000;" horiz-adv-x="1145" d="M0 1145h1145v-1145h-1145v1145z" />
<glyph unicode="&#xfb01;" horiz-adv-x="1116" d="M1069 0h-399v184l82 9v765h-324v-765l82 -11v-182h-399v182l82 11v765l-154 21v164h154v137q0 166 57 244t203 78q100 0 196 -31v-150q-92 6 -127 6q-61 0 -77.5 -28.5t-16.5 -118.5v-137h561v-950l80 -9v-184zM993 1335h-245v242h245v-242z" />
<glyph unicode="&#xfb02;" horiz-adv-x="1138" d="M1087 0h-399v182l80 11v1226q-106 8 -213 8q-78 0 -102.5 -25.5t-24.5 -121.5v-137h213v-185h-213v-765l80 -11v-182h-397v182l82 11v765l-156 21v164h156v137q0 182 69.5 252t224.5 70q80 0 283 -25h236v-1384l81 -11v-182z" />
<glyph unicode="&#xfb03;" horiz-adv-x="1681" d="M1626 0h-399v184l82 9v765h-322v-765l82 -11v-182h-399v182l82 11v765h-322v-765l80 -11v-182h-399v182l82 11v765l-154 21v164h154v137q0 164 57 243t205 79q98 0 194 -31v-150q-92 6 -127 6q-61 0 -76.5 -28.5t-15.5 -118.5v-137h322v137q0 164 57 243t203 79 q98 0 196 -31v-150q-92 6 -127 6q-61 0 -77.5 -28.5t-16.5 -118.5v-137h557v-950l82 -9v-184zM1548 1335h-243v242h243v-242z" />
<glyph unicode="&#xfb04;" horiz-adv-x="1693" d="M1642 0h-399v182l82 11v1226q-106 8 -213 8q-78 0 -102.5 -26.5t-24.5 -120.5v-137h215v-185h-215v-765l82 -11v-182h-399v182l82 11v765h-322v-765l82 -11v-182h-399v182l82 11v765l-154 21v164h154v137q0 164 57 243t203 79q96 0 194 -31v-150q-92 6 -127 6 q-61 0 -76.5 -28.5t-15.5 -118.5v-137h322v137q0 182 69.5 252t227.5 70q76 0 278 -25h236v-1384l81 -11v-182z" />
</font>
</defs>
</svg>
